# xmcd
#
# Track frame offsets:
#	150
#	17845
#	35695
#	51911
#	69410
#	85079
#	102310
#	115777
#	131362
#	148718
#	163619
#	179655
#	197033
#	215663
#	232094
#	249358
#	261755
#	274478
#	287567
#	301506
#	314818
#
# Disc length: 4416 seconds
#
# Revision: 0
# Processed by: cddbd v1.5.2PL0 Copyright (c) Steve Scherf et al.
# Submitted via: dBpowerAMP V4.0
#
DISCID=3c113e15
DTITLE=Sertanejo - Country
DYEAR=2006
DGENRE=Country
TTITLE0=Bruno e Marrone
TTITLE1=Bruno e marrone
TTITLE2=Bruno e Marrone
TTITLE3=Bruno e Marrone
TTITLE4=Edson e Hudson
TTITLE5=Edson e Hudson
TTITLE6=Edson e Hudson
TTITLE7=Edson e Hudson
TTITLE8=Gino e Geno
TTITLE9=Gino e Geno
TTITLE10=Gino e Geno
TTITLE11=Gino e Geno
TTITLE12=Rick e Rener
TTITLE13=Rick e Rener
TTITLE14=Rick e Rener
TTITLE15=Rick e Rener
TTITLE16=Rio negro e Solimoes
TTITLE17=Rio negro e Solimoes
TTITLE18=Rio negro e Solimoes
TTITLE19=Rio negro e Solimoes
TTITLE20=Leandro e Leonardo
EXTD=track 1 ate 21\n
EXTT0=
EXTT1=
EXTT2=
EXTT3=
EXTT4=
EXTT5=
EXTT6=
EXTT7=
EXTT8=
EXTT9=
EXTT10=
EXTT11=
EXTT12=
EXTT13=
EXTT14=
EXTT15=
EXTT16=
EXTT17=
EXTT18=
EXTT19=
EXTT20=
PLAYORDER=
